<svg id="visual" viewBox="0 0 900 600" width="900" height="600" xmlns="http://www.w3.org/2000/svg" xmlns:xlink="http://www.w3.org/1999/xlink" version="1.1"><path d="M0 346L25 328.2C50 310.3 100 274.7 150 270.5C200 266.3 250 293.7 300 315.2C350 336.7 400 352.3 450 338C500 323.7 550 279.3 600 274.3C650 269.3 700 303.7 750 317.8C800 332 850 326 875 323L900 320L900 601L875 601C850 601 800 601 750 601C700 601 650 601 600 601C550 601 500 601 450 601C400 601 350 601 300 601C250 601 200 601 150 601C100 601 50 601 25 601L0 601Z" fill="#8a8cff"></path><path d="M0 344L25 359.3C50 374.7 100 405.3 150 412.3C200 419.3 250 402.7 300 378.8C350 355 400 324 450 317.3C500 310.7 550 328.3 600 341.2C650 354 700 362 750 364.5C800 367 850 364 875 362.5L900 361L900 601L875 601C850 601 800 601 750 601C700 601 650 601 600 601C550 601 500 601 450 601C400 601 350 601 300 601C250 601 200 601 150 601C100 601 50 601 25 601L0 601Z" fill="#28b3ff"></path><path d="M0 425L25 422C50 419 100 413 150 421.3C200 429.7 250 452.3 300 442.7C350 433 400 391 450 372C500 353 550 357 600 357.2C650 357.3 700 353.7 750 355.3C800 357 850 364 875 367.5L900 371L900 601L875 601C850 601 800 601 750 601C700 601 650 601 600 601C550 601 500 601 450 601C400 601 350 601 300 601C250 601 200 601 150 601C100 601 50 601 25 601L0 601Z" fill="#00cfff"></path><path d="M0 419L25 431C50 443 100 467 150 479.3C200 491.7 250 492.3 300 480.8C350 469.3 400 445.7 450 449C500 452.3 550 482.7 600 491.7C650 500.7 700 488.3 750 478.5C800 468.7 850 461.3 875 457.7L900 454L900 601L875 601C850 601 800 601 750 601C700 601 650 601 600 601C550 601 500 601 450 601C400 601 350 601 300 601C250 601 200 601 150 601C100 601 50 601 25 601L0 601Z" fill="#00e7ff"></path><path d="M0 516L25 521.2C50 526.3 100 536.7 150 534.2C200 531.7 250 516.3 300 516.3C350 516.3 400 531.7 450 533.8C500 536 550 525 600 525.8C650 526.7 700 539.3 750 536C800 532.7 850 513.3 875 503.7L900 494L900 601L875 601C850 601 800 601 750 601C700 601 650 601 600 601C550 601 500 601 450 601C400 601 350 601 300 601C250 601 200 601 150 601C100 601 50 601 25 601L0 601Z" fill="#01fdf6"></path></svg>